<mxfile host="app.diagrams.net" modified="2023-05-12T14:09:50.475Z" agent="Mozilla/5.0 (Windows NT 10.0; Win64; x64) AppleWebKit/537.36 (KHTML, like Gecko) Chrome/113.0.0.0 Safari/537.36 Edg/113.0.1774.35" version="21.2.2" etag="-72do1150D148Hj_5nCm" type="github">
  <diagram name="Page-1" id="01L9adI49QzojkpNSOmW">
    <mxGraphModel>
      <root>
        <mxCell id="0" />
        <mxCell id="1" parent="0" />
      </root>
    </mxGraphModel>
  </diagram>
</mxfile>
